<?xml version="1.0" encoding="UTF-8"?>
<!DOCTYPE svg PUBLIC "-//W3C//DTD SVG 1.1//EN" "http://www.w3.org/Graphics/SVG/1.1/DTD/svg11.dtd">
<svg xmlns="http://www.w3.org/2000/svg" version="1.1" width="500px" height="500px" style="shape-rendering:geometricPrecision; text-rendering:geometricPrecision; image-rendering:optimizeQuality; fill-rule:evenodd; clip-rule:evenodd" xmlns:xlink="http://www.w3.org/1999/xlink">
<g><path style="opacity:1" fill="#f8f1e9" d="M 346.5,201.5 C 345.883,201.611 345.383,201.944 345,202.5C 344.503,205.146 344.336,207.813 344.5,210.5C 346.621,210.675 348.621,210.341 350.5,209.5C 353.942,208.828 356.609,209.828 358.5,212.5C 356.992,214.181 355.992,216.181 355.5,218.5C 351.5,218.5 347.5,218.5 343.5,218.5C 343.175,225.687 343.509,232.687 344.5,239.5C 345.06,241.801 345.56,244.134 346,246.5C 347.011,247.337 348.178,247.67 349.5,247.5C 349.5,246.5 349.5,245.5 349.5,244.5C 350.222,244.918 350.722,245.584 351,246.5C 353.493,244.328 356.326,243.494 359.5,244C 360.305,245.113 360.972,246.279 361.5,247.5C 359.469,248.539 358.136,250.205 357.5,252.5C 356.167,253.167 355.167,254.167 354.5,255.5C 347.484,258.656 340.15,259.323 332.5,257.5C 328.908,255.573 326.908,252.573 326.5,248.5C 326.5,240.5 326.5,232.5 326.5,224.5C 328.635,224.853 329.968,224.02 330.5,222C 329.576,220.85 329.576,219.85 330.5,219C 328.632,218.101 327.632,216.601 327.5,214.5C 328.64,211.752 329.974,209.085 331.5,206.5C 331.043,205.702 330.376,205.369 329.5,205.5C 331.385,203.947 332.385,201.947 332.5,199.5C 333.117,199.611 333.617,199.944 334,200.5C 336.527,198.903 339.194,197.57 342,196.5C 344.378,197.377 345.878,199.044 346.5,201.5 Z"/></g>
<g><path style="opacity:1" fill="#f8f0e8" d="M 203.5,191.5 C 202.503,191.47 201.836,191.97 201.5,193C 203.945,198.979 205.112,205.146 205,211.5C 203.348,212.399 201.848,213.399 200.5,214.5C 196.824,210.459 193.157,206.459 189.5,202.5C 190.087,200.315 189.087,198.648 186.5,197.5C 180.788,194.841 175.121,194.841 169.5,197.5C 162.907,202.462 159.907,209.128 160.5,217.5C 161.107,227.001 164.441,235.334 170.5,242.5C 171.107,242.376 171.44,242.043 171.5,241.5C 177.659,246.725 184.659,247.892 192.5,245C 196.398,242.08 200.231,239.247 204,236.5C 205.326,236.755 206.326,237.422 207,238.5C 207.499,234.179 207.666,229.846 207.5,225.5C 208.457,231.002 209.29,236.669 210,242.5C 213.309,245.43 212.809,247.764 208.5,249.5C 209.727,250.59 210.56,251.924 211,253.5C 212.449,252.386 213.783,251.386 215,250.5C 215.494,252.134 215.66,253.801 215.5,255.5C 217.143,255.52 218.476,254.853 219.5,253.5C 220.167,254.167 220.833,254.833 221.5,255.5C 222.528,253.639 224.028,252.305 226,251.5C 226.456,252.744 225.956,253.577 224.5,254C 226.464,255.794 227.964,255.294 229,252.5C 229.494,254.134 229.66,255.801 229.5,257.5C 221.943,257.848 214.61,258.848 207.5,260.5C 205.77,259.974 204.436,258.974 203.5,257.5C 203.34,255.801 203.506,254.134 204,252.5C 208.073,249.702 209.239,246.036 207.5,241.5C 199.073,255.212 186.74,261.212 170.5,259.5C 164.061,257.95 158.061,255.283 152.5,251.5C 149.55,249.379 147.05,246.713 145,243.5C 136.249,222.767 140.749,205.6 158.5,192C 168.851,186.392 179.684,185.226 191,188.5C 196.333,185.13 200.499,186.13 203.5,191.5 Z"/></g>
<g><path style="opacity:1" fill="#d87e7e" d="M 186.5,197.5 C 183.61,199.23 180.276,200.23 176.5,200.5C 174.38,199.128 173.38,199.795 173.5,202.5C 170.072,203.686 167.572,206.019 166,209.5C 165.217,215.963 164.717,222.296 164.5,228.5C 163.749,227.624 163.249,226.624 163,225.5C 162.333,220.5 162.333,215.5 163,210.5C 165.082,206.063 167.249,201.729 169.5,197.5C 175.121,194.841 180.788,194.841 186.5,197.5 Z"/></g>
<g><path style="opacity:1" fill="#d1898a" d="M 203.5,191.5 C 204.458,191.953 205.292,192.619 206,193.5C 207.809,198.359 208.976,203.359 209.5,208.5C 209.279,212.803 206.945,215.137 202.5,215.5C 201.833,215.167 201.167,214.833 200.5,214.5C 201.848,213.399 203.348,212.399 205,211.5C 205.112,205.146 203.945,198.979 201.5,193C 201.836,191.97 202.503,191.47 203.5,191.5 Z"/></g>
<g><path style="opacity:1" fill="#d48e8c" d="M 346.5,201.5 C 350.095,202.85 351.428,205.517 350.5,209.5C 348.621,210.341 346.621,210.675 344.5,210.5C 344.336,207.813 344.503,205.146 345,202.5C 345.383,201.944 345.883,201.611 346.5,201.5 Z"/></g>
<g><path style="opacity:1" fill="#d7908f" d="M 327.5,193.5 C 330.562,194.268 332.228,196.268 332.5,199.5C 332.385,201.947 331.385,203.947 329.5,205.5C 327.456,206.031 325.789,207.198 324.5,209C 323.072,209.579 321.738,209.412 320.5,208.5C 320.218,207.222 319.551,206.222 318.5,205.5C 326.651,205.659 329.651,201.659 327.5,193.5 Z"/></g>
<g><path style="opacity:1" fill="#f8f1e9" d="M 209.5,208.5 C 210.268,209.263 210.768,210.263 211,211.5C 215.192,208.996 219.692,208.163 224.5,209C 225.071,210.205 225.738,211.372 226.5,212.5C 231.228,208.789 236.562,207.622 242.5,209C 244.66,209.996 246.327,211.496 247.5,213.5C 246.976,219.739 249.309,221.072 254.5,217.5C 255.167,217.667 255.833,217.833 256.5,218C 255.748,218.671 255.414,219.504 255.5,220.5C 254.833,220.5 254.5,220.833 254.5,221.5C 249.228,223.487 244.228,225.821 239.5,228.5C 238.833,228.167 238.167,227.833 237.5,227.5C 236.236,222.921 233.236,221.421 228.5,223C 228,223.5 227.5,224 227,224.5C 226.177,232.677 226.344,240.677 227.5,248.5C 227.5,248.833 227.5,249.167 227.5,249.5C 230.068,251.081 231.401,253.414 231.5,256.5C 231.158,257.338 230.492,257.672 229.5,257.5C 229.66,255.801 229.494,254.134 229,252.5C 227.964,255.294 226.464,255.794 224.5,254C 225.956,253.577 226.456,252.744 226,251.5C 224.028,252.305 222.528,253.639 221.5,255.5C 220.833,254.833 220.167,254.167 219.5,253.5C 218.476,254.853 217.143,255.52 215.5,255.5C 215.66,253.801 215.494,252.134 215,250.5C 213.783,251.386 212.449,252.386 211,253.5C 210.56,251.924 209.727,250.59 208.5,249.5C 212.809,247.764 213.309,245.43 210,242.5C 209.29,236.669 208.457,231.002 207.5,225.5C 206.571,223.564 205.237,221.897 203.5,220.5C 202.548,218.955 202.215,217.288 202.5,215.5C 206.945,215.137 209.279,212.803 209.5,208.5 Z"/></g>
<g><path style="opacity:1" fill="#f8efe7" d="M 286.5,217.5 C 288.993,227.304 290.16,237.304 290,247.5C 290.383,248.056 290.883,248.389 291.5,248.5C 292.542,249.791 293.708,249.791 295,248.5C 295.822,240.988 295.655,233.655 294.5,226.5C 293.314,225.295 293.314,223.961 294.5,222.5C 295.167,222.5 295.833,222.5 296.5,222.5C 296.628,227.948 296.628,233.448 296.5,239C 296.915,242.106 297.915,242.272 299.5,239.5C 301.241,245.038 302.408,250.705 303,256.5C 307.737,257.469 312.57,257.803 317.5,257.5C 317.567,254.234 315.901,252.734 312.5,253C 313.727,251.413 313.394,250.079 311.5,249C 312.156,238.735 312.822,228.568 313.5,218.5C 313.334,228.172 313.5,237.839 314,247.5C 314.941,249.061 316.108,250.395 317.5,251.5C 318.298,251.043 318.631,250.376 318.5,249.5C 320.192,251.205 321.525,253.205 322.5,255.5C 321.005,255.415 320.005,256.081 319.5,257.5C 307.143,258.25 294.809,258.583 282.5,258.5C 280.833,258.333 279.167,258.167 277.5,258C 275.983,256.315 274.316,254.815 272.5,253.5C 269.821,255.687 266.821,257.187 263.5,258C 258.285,258.29 253.285,258.457 248.5,258.5C 239.646,251.647 238.313,243.647 244.5,234.5C 247.756,232.588 250.756,230.254 253.5,227.5C 254.167,227.5 254.833,227.5 255.5,227.5C 256.167,228.833 256.833,228.833 257.5,227.5C 257.833,227.5 258.167,227.5 258.5,227.5C 262.011,227.101 265.344,226.434 268.5,225.5C 269.525,225.103 269.692,224.437 269,223.5C 264.908,220.874 260.408,219.874 255.5,220.5C 255.414,219.504 255.748,218.671 256.5,218C 255.833,217.833 255.167,217.667 254.5,217.5C 249.309,221.072 246.976,219.739 247.5,213.5C 248.458,213.953 249.292,214.619 250,215.5C 259.705,207.624 270.205,206.457 281.5,212C 283.373,213.704 285.04,215.537 286.5,217.5 Z M 270.5,239.5 C 271.867,246.128 269.2,249.462 262.5,249.5C 261.844,243.469 264.511,240.136 270.5,239.5 Z"/></g>
<g><path style="opacity:1" fill="#f8f2e9" d="M 327.5,193.5 C 329.651,201.659 326.651,205.659 318.5,205.5C 317.488,204.128 316.488,202.795 315.5,201.5C 315.5,199.833 315.5,198.167 315.5,196.5C 313.248,195.667 311.081,195.667 309,196.5C 308.333,199.833 308.333,203.167 309,206.5C 310.019,207.687 311.186,208.687 312.5,209.5C 313.107,209.376 313.44,209.043 313.5,208.5C 315.941,209.756 318.274,209.756 320.5,208.5C 321.738,209.412 323.072,209.579 324.5,209C 325.789,207.198 327.456,206.031 329.5,205.5C 330.376,205.369 331.043,205.702 331.5,206.5C 329.974,209.085 328.64,211.752 327.5,214.5C 327.632,216.601 328.632,218.101 330.5,219C 329.576,219.85 329.576,220.85 330.5,222C 329.968,224.02 328.635,224.853 326.5,224.5C 326.5,232.5 326.5,240.5 326.5,248.5C 325.507,240.35 325.174,232.017 325.5,223.5C 326.451,222.081 326.784,220.415 326.5,218.5C 322.167,218.5 317.833,218.5 313.5,218.5C 312.822,228.568 312.156,238.735 311.5,249C 313.394,250.079 313.727,251.413 312.5,253C 315.901,252.734 317.567,254.234 317.5,257.5C 312.57,257.803 307.737,257.469 303,256.5C 302.408,250.705 301.241,245.038 299.5,239.5C 297.915,242.272 296.915,242.106 296.5,239C 296.628,233.448 296.628,227.948 296.5,222.5C 296.5,220.833 296.5,219.167 296.5,217.5C 295.5,217.5 294.5,217.5 293.5,217.5C 293.5,218.5 293.5,219.5 293.5,220.5C 288.922,219.181 287.422,216.181 289,211.5C 290.763,210.056 292.763,209.056 295,208.5C 297.2,190.285 307.033,183.785 324.5,189C 325.883,190.271 326.883,191.771 327.5,193.5 Z M 315.5,201.5 C 316.488,202.795 317.488,204.128 318.5,205.5C 319.551,206.222 320.218,207.222 320.5,208.5C 318.274,209.756 315.941,209.756 313.5,208.5C 313.338,206.473 313.505,204.473 314,202.5C 314.383,201.944 314.883,201.611 315.5,201.5 Z"/></g>
<g><path style="opacity:1" fill="#d48d8a" d="M 315.5,201.5 C 314.883,201.611 314.383,201.944 314,202.5C 313.505,204.473 313.338,206.473 313.5,208.5C 313.44,209.043 313.107,209.376 312.5,209.5C 311.186,208.687 310.019,207.687 309,206.5C 308.333,203.167 308.333,199.833 309,196.5C 311.081,195.667 313.248,195.667 315.5,196.5C 315.5,198.167 315.5,199.833 315.5,201.5 Z"/></g>
<g><path style="opacity:1" fill="#e4b5b6" d="M 296.5,222.5 C 295.833,222.5 295.167,222.5 294.5,222.5C 293.662,222.158 293.328,221.492 293.5,220.5C 293.5,219.5 293.5,218.5 293.5,217.5C 294.5,217.5 295.5,217.5 296.5,217.5C 296.5,219.167 296.5,220.833 296.5,222.5 Z"/></g>
<g><path style="opacity:1" fill="#d48685" d="M 358.5,212.5 C 362.636,215.129 363.636,218.795 361.5,223.5C 357.653,224.02 353.653,224.02 349.5,223.5C 349.5,230.5 349.5,237.5 349.5,244.5C 349.5,245.5 349.5,246.5 349.5,247.5C 348.178,247.67 347.011,247.337 346,246.5C 345.56,244.134 345.06,241.801 344.5,239.5C 344.5,232.833 344.5,226.167 344.5,219.5C 348.371,219.815 352.038,219.482 355.5,218.5C 355.992,216.181 356.992,214.181 358.5,212.5 Z"/></g>
<g><path style="opacity:1" fill="#d2918e" d="M 254.5,221.5 C 254.5,220.833 254.833,220.5 255.5,220.5C 260.408,219.874 264.908,220.874 269,223.5C 269.692,224.437 269.525,225.103 268.5,225.5C 265.482,225.335 262.482,225.502 259.5,226C 258.944,226.383 258.611,226.883 258.5,227.5C 258.167,227.5 257.833,227.5 257.5,227.5C 256.833,227.5 256.167,227.5 255.5,227.5C 254.833,227.5 254.167,227.5 253.5,227.5C 253.953,226.542 254.619,225.708 255.5,225C 267.25,222.879 266.917,221.713 254.5,221.5 Z"/></g>
<g><path style="opacity:1" fill="#d48584" d="M 313.5,218.5 C 317.833,218.5 322.167,218.5 326.5,218.5C 326.784,220.415 326.451,222.081 325.5,223.5C 323.167,223.5 320.833,223.5 318.5,223.5C 318.5,232.167 318.5,240.833 318.5,249.5C 318.631,250.376 318.298,251.043 317.5,251.5C 316.108,250.395 314.941,249.061 314,247.5C 313.5,237.839 313.334,228.172 313.5,218.5 Z"/></g>
<g><path style="opacity:1" fill="#d2908d" d="M 237.5,227.5 C 234.923,227.455 232.923,228.455 231.5,230.5C 231.178,228.278 231.845,226.444 233.5,225C 231.866,224.506 230.199,224.34 228.5,224.5C 227.597,232.458 227.264,240.458 227.5,248.5C 226.344,240.677 226.177,232.677 227,224.5C 227.5,224 228,223.5 228.5,223C 233.236,221.421 236.236,222.921 237.5,227.5 Z"/></g>
<g><path style="opacity:1" fill="#edb9b7" d="M 355.5,218.5 C 352.038,219.482 348.371,219.815 344.5,219.5C 344.5,226.167 344.5,232.833 344.5,239.5C 343.509,232.687 343.175,225.687 343.5,218.5C 347.5,218.5 351.5,218.5 355.5,218.5 Z"/></g>
<g><path style="opacity:1" fill="#d48989" d="M 286.5,217.5 C 291.171,220.505 293.504,224.838 293.5,230.5C 293.928,236.176 294.095,241.843 294,247.5C 293.329,248.252 292.496,248.586 291.5,248.5C 290.883,248.389 290.383,248.056 290,247.5C 290.16,237.304 288.993,227.304 286.5,217.5 Z"/></g>
<g><path style="opacity:1" fill="#d88081" d="M 254.5,221.5 C 266.917,221.713 267.25,222.879 255.5,225C 254.619,225.708 253.953,226.542 253.5,227.5C 250.756,230.254 247.756,232.588 244.5,234.5C 243.162,232.304 241.495,230.304 239.5,228.5C 244.228,225.821 249.228,223.487 254.5,221.5 Z"/></g>
<g><path style="opacity:1" fill="#d18b89" d="M 169.5,197.5 C 167.249,201.729 165.082,206.063 163,210.5C 162.333,215.5 162.333,220.5 163,225.5C 163.249,226.624 163.749,227.624 164.5,228.5C 164.717,222.296 165.217,215.963 166,209.5C 167.572,206.019 170.072,203.686 173.5,202.5C 173.38,199.795 174.38,199.128 176.5,200.5C 180.276,200.23 183.61,199.23 186.5,197.5C 189.087,198.648 190.087,200.315 189.5,202.5C 179.901,198.69 172.734,201.356 168,210.5C 165.296,221.374 166.463,231.707 171.5,241.5C 171.44,242.043 171.107,242.376 170.5,242.5C 164.441,235.334 161.107,227.001 160.5,217.5C 159.907,209.128 162.907,202.462 169.5,197.5 Z"/></g>
<g><path style="opacity:1" fill="#d58886" d="M 270.5,239.5 C 264.511,240.136 261.844,243.469 262.5,249.5C 260.019,249.677 258.186,248.677 257,246.5C 255.822,236.191 260.322,232.524 270.5,235.5C 271.782,236.958 271.782,238.292 270.5,239.5 Z"/></g>
<g><path style="opacity:1" fill="#d47f7e" d="M 231.5,230.5 C 231.5,230.833 231.5,231.167 231.5,231.5C 230.672,237.653 230.172,243.987 230,250.5C 229.329,249.748 228.496,249.414 227.5,249.5C 227.5,249.167 227.5,248.833 227.5,248.5C 227.264,240.458 227.597,232.458 228.5,224.5C 230.199,224.34 231.866,224.506 233.5,225C 231.845,226.444 231.178,228.278 231.5,230.5 Z"/></g>
<g><path style="opacity:1" fill="#e2c1ba" d="M 294.5,226.5 C 295.655,233.655 295.822,240.988 295,248.5C 293.708,249.791 292.542,249.791 291.5,248.5C 292.496,248.586 293.329,248.252 294,247.5C 294.095,241.843 293.928,236.176 293.5,230.5C 294.434,229.432 294.768,228.099 294.5,226.5 Z"/></g>
<g><path style="opacity:1" fill="#d39594" d="M 231.5,231.5 C 231.334,238.175 231.5,244.842 232,251.5C 232.953,253.455 234.287,255.122 236,256.5C 236.808,258.579 236.641,260.579 235.5,262.5C 226.705,263.817 218.038,263.817 209.5,262.5C 217.507,262.666 225.507,262.5 233.5,262C 236.487,258.792 235.82,256.959 231.5,256.5C 231.401,253.414 230.068,251.081 227.5,249.5C 228.496,249.414 229.329,249.748 230,250.5C 230.172,243.987 230.672,237.653 231.5,231.5 Z"/></g>
<g><path style="opacity:1" fill="#d3918f" d="M 361.5,247.5 C 364.473,247.965 365.64,249.632 365,252.5C 362.951,257.383 359.451,260.717 354.5,262.5C 355.641,260.912 357.141,259.579 359,258.5C 359.557,256.385 360.391,254.385 361.5,252.5C 360.443,252.094 359.109,252.094 357.5,252.5C 358.136,250.205 359.469,248.539 361.5,247.5 Z"/></g>
<g><path style="opacity:1" fill="#ce9295" d="M 152.5,251.5 C 158.061,255.283 164.061,257.95 170.5,259.5C 168.517,259.157 167.183,259.824 166.5,261.5C 160.815,259.652 156.149,256.319 152.5,251.5 Z"/></g>
<g><path style="opacity:1" fill="#d48282" d="M 203.5,257.5 C 203.167,257.5 202.833,257.5 202.5,257.5C 198.481,258.249 194.814,259.749 191.5,262C 183.139,262.705 174.806,262.538 166.5,261.5C 167.183,259.824 168.517,259.157 170.5,259.5C 186.74,261.212 199.073,255.212 207.5,241.5C 209.239,246.036 208.073,249.702 204,252.5C 203.506,254.134 203.34,255.801 203.5,257.5 Z"/></g>
<g><path style="opacity:1" fill="#d28181" d="M 231.5,256.5 C 235.82,256.959 236.487,258.792 233.5,262C 225.507,262.5 217.507,262.666 209.5,262.5C 208.167,262.5 207.5,261.833 207.5,260.5C 214.61,258.848 221.943,257.848 229.5,257.5C 230.492,257.672 231.158,257.338 231.5,256.5 Z"/></g>
<g><path style="opacity:1" fill="#d48684" d="M 322.5,255.5 C 326.575,257.211 327.241,259.711 324.5,263C 314.632,263.796 304.798,263.629 295,262.5C 288.05,265.897 281.883,264.897 276.5,259.5C 266.755,266.452 257.421,266.118 248.5,258.5C 253.285,258.457 258.285,258.29 263.5,258C 266.821,257.187 269.821,255.687 272.5,253.5C 274.316,254.815 275.983,256.315 277.5,258C 279.167,258.167 280.833,258.333 282.5,258.5C 294.809,258.583 307.143,258.25 319.5,257.5C 320.005,256.081 321.005,255.415 322.5,255.5 Z"/></g>
<g><path style="opacity:1" fill="#d69896" d="M 354.5,255.5 C 353.014,257.619 351.014,259.119 348.5,260C 345.167,260.333 341.833,260.667 338.5,261C 342.965,262.926 347.632,263.76 352.5,263.5C 344.469,266.157 337.803,264.157 332.5,257.5C 340.15,259.323 347.484,258.656 354.5,255.5 Z"/></g>
<g><path style="opacity:1" fill="#d97e7f" d="M 354.5,262.5 C 354.158,263.338 353.492,263.672 352.5,263.5C 347.632,263.76 342.965,262.926 338.5,261C 341.833,260.667 345.167,260.333 348.5,260C 351.014,259.119 353.014,257.619 354.5,255.5C 355.167,254.167 356.167,253.167 357.5,252.5C 359.109,252.094 360.443,252.094 361.5,252.5C 360.391,254.385 359.557,256.385 359,258.5C 357.141,259.579 355.641,260.912 354.5,262.5 Z"/></g>
<g><path style="opacity:1" fill="#d29493" d="M 202.5,257.5 C 199.057,261.222 194.723,263.389 189.5,264C 184.167,264.667 178.833,264.667 173.5,264C 170.896,263.61 168.562,262.776 166.5,261.5C 174.806,262.538 183.139,262.705 191.5,262C 194.814,259.749 198.481,258.249 202.5,257.5 Z"/></g>
<g><path style="opacity:1" fill="#f6ece4" d="M 258.5,282.5 C 257.179,285.598 256.512,289.098 256.5,293C 256.667,296.5 256.833,300 257,303.5C 257.601,305.359 258.434,305.692 259.5,304.5C 262.002,305.779 264.502,305.779 267,304.5C 268.27,296.603 268.937,288.603 269,280.5C 271.163,279.232 273.33,279.232 275.5,280.5C 275.666,288.174 275.5,295.841 275,303.5C 273.807,307.36 271.307,309.86 267.5,311C 263.644,311.177 259.977,311.677 256.5,312.5C 253.413,310.579 251.246,307.913 250,304.5C 249.333,296.5 249.333,288.5 250,280.5C 253.491,278.772 256.325,279.438 258.5,282.5 Z"/></g>
<g><path style="opacity:1" fill="#f7ebe3" d="M 230.5,281.5 C 229.18,289.343 229.18,297.343 230.5,305.5C 231.107,305.376 231.44,305.043 231.5,304.5C 235.415,305.267 239.415,305.767 243.5,306C 244.056,306.383 244.389,306.883 244.5,307.5C 242.824,308.183 242.157,309.517 242.5,311.5C 236.31,311.177 230.31,311.51 224.5,312.5C 223.883,312.389 223.383,312.056 223,311.5C 222.168,301.151 222.334,290.817 223.5,280.5C 226.157,279.087 228.49,279.42 230.5,281.5 Z"/></g>
<g><path style="opacity:1" fill="#cf8c8a" d="M 230.5,281.5 C 231.492,288.982 231.825,296.648 231.5,304.5C 231.44,305.043 231.107,305.376 230.5,305.5C 229.18,297.343 229.18,289.343 230.5,281.5 Z"/></g>
<g><path style="opacity:1" fill="#d49797" d="M 204.5,287.5 C 197.82,287.695 194.487,291.195 194.5,298C 194.482,300.41 195.149,302.577 196.5,304.5C 194.876,304.64 193.71,303.973 193,302.5C 190.155,296.024 191.322,290.524 196.5,286C 198.833,285.333 201.167,285.333 203.5,286C 204.056,286.383 204.389,286.883 204.5,287.5 Z"/></g>
<g><path style="opacity:1" fill="#f7efe6" d="M 309.5,284.5 C 309.216,288.549 307.55,292.049 304.5,295C 306.03,296.12 307.697,296.954 309.5,297.5C 309.789,301.106 309.456,304.606 308.5,308C 306.5,309 304.5,310 302.5,311C 297.177,311.499 291.844,311.666 286.5,311.5C 285.341,301.342 285.175,291.008 286,280.5C 292.488,279.153 298.988,279.319 305.5,281C 306.731,282.405 308.064,283.571 309.5,284.5 Z M 301.5,289.5 C 301.586,290.496 301.252,291.329 300.5,292C 298.527,292.495 296.527,292.662 294.5,292.5C 294.5,291.167 294.5,289.833 294.5,288.5C 297.059,288.198 299.393,288.532 301.5,289.5 Z M 303.5,301.5 C 303.489,303.017 302.823,304.184 301.5,305C 299.19,305.497 296.857,305.663 294.5,305.5C 294.5,303.833 294.5,302.167 294.5,300.5C 297.609,300.264 300.609,300.597 303.5,301.5 Z"/></g>
<g><path style="opacity:1" fill="#f7eee5" d="M 214.5,287.5 C 213.596,288.209 213.263,289.209 213.5,290.5C 211.585,290.216 209.919,290.549 208.5,291.5C 206.833,290.5 205.5,289.167 204.5,287.5C 204.389,286.883 204.056,286.383 203.5,286C 201.167,285.333 198.833,285.333 196.5,286C 191.322,290.524 190.155,296.024 193,302.5C 193.71,303.973 194.876,304.64 196.5,304.5C 197.908,305.061 199.408,305.395 201,305.5C 204.055,303.609 207.222,301.942 210.5,300.5C 211.833,300.667 213.167,300.833 214.5,301C 215.056,301.383 215.389,301.883 215.5,302.5C 213.215,305.452 210.548,308.118 207.5,310.5C 203.541,311.327 199.541,311.827 195.5,312C 196.056,312.383 196.389,312.883 196.5,313.5C 185.948,308.373 182.448,300.04 186,288.5C 190.47,280.443 197.303,277.61 206.5,280C 210.313,281.385 212.979,283.885 214.5,287.5 Z"/></g>
<g><path style="opacity:1" fill="#d9a7a6" d="M 301.5,289.5 C 299.393,288.532 297.059,288.198 294.5,288.5C 294.5,289.833 294.5,291.167 294.5,292.5C 293.791,293.404 292.791,293.737 291.5,293.5C 291.5,290.833 291.5,288.167 291.5,285.5C 295.215,285.423 298.881,285.756 302.5,286.5C 302.737,287.791 302.404,288.791 301.5,289.5 Z"/></g>
<g><path style="opacity:1" fill="#ce9b99" d="M 309.5,284.5 C 310.575,286.157 311.242,287.991 311.5,290C 310.678,292.472 310.011,294.972 309.5,297.5C 307.697,296.954 306.03,296.12 304.5,295C 307.55,292.049 309.216,288.549 309.5,284.5 Z"/></g>
<g><path style="opacity:1" fill="#c89191" d="M 214.5,287.5 C 215.153,288.807 215.82,290.14 216.5,291.5C 213.691,292.8 211.024,292.8 208.5,291.5C 209.919,290.549 211.585,290.216 213.5,290.5C 213.263,289.209 213.596,288.209 214.5,287.5 Z"/></g>
<g><path style="opacity:1" fill="#d09b98" d="M 258.5,282.5 C 259.492,289.648 259.825,296.981 259.5,304.5C 258.434,305.692 257.601,305.359 257,303.5C 256.833,300 256.667,296.5 256.5,293C 256.512,289.098 257.179,285.598 258.5,282.5 Z"/></g>
<g><path style="opacity:1" fill="#d39b9a" d="M 303.5,301.5 C 300.609,300.597 297.609,300.264 294.5,300.5C 294.5,302.167 294.5,303.833 294.5,305.5C 293.791,306.404 292.791,306.737 291.5,306.5C 291.5,303.5 291.5,300.5 291.5,297.5C 295.182,297.335 298.848,297.501 302.5,298C 303.337,299.011 303.67,300.178 303.5,301.5 Z"/></g>
<g><path style="opacity:1" fill="#cf8b89" d="M 244.5,307.5 C 244.5,309.5 244.5,311.5 244.5,313.5C 237.646,313.824 230.979,313.491 224.5,312.5C 230.31,311.51 236.31,311.177 242.5,311.5C 242.157,309.517 242.824,308.183 244.5,307.5 Z"/></g>
<g><path style="opacity:1" fill="#d3908e" d="M 275.5,280.5 C 276.117,280.611 276.617,280.944 277,281.5C 277.667,290.167 277.667,298.833 277,307.5C 274.51,312.623 270.343,314.957 264.5,314.5C 261.689,313.92 259.023,313.254 256.5,312.5C 259.977,311.677 263.644,311.177 267.5,311C 271.307,309.86 273.807,307.36 275,303.5C 275.5,295.841 275.666,288.174 275.5,280.5 Z"/></g>
<g><path style="opacity:1" fill="#d49192" d="M 215.5,302.5 C 215.885,307.041 213.885,310.541 209.5,313C 205.05,314.104 200.717,314.271 196.5,313.5C 196.389,312.883 196.056,312.383 195.5,312C 199.541,311.827 203.541,311.327 207.5,310.5C 210.548,308.118 213.215,305.452 215.5,302.5 Z"/></g>
<g><path style="opacity:1" fill="#d38e8b" d="M 309.5,297.5 C 313.752,302.535 313.419,307.369 308.5,312C 301.608,313.591 294.608,313.924 287.5,313C 286.944,312.617 286.611,312.117 286.5,311.5C 291.844,311.666 297.177,311.499 302.5,311C 304.5,310 306.5,309 308.5,308C 309.456,304.606 309.789,301.106 309.5,297.5 Z"/></g>
</svg>
